<svg xmlns="http://www.w3.org/2000/svg" width="375" viewBox="0 0 375 375" height="375" version="1.0"><defs><clipPath id="a"><path d="M 94 276 L 96 276 L 96 277 L 94 277 Z M 94 276"/></clipPath><clipPath id="b"><path d="M -27.367188 73.9375 L 299.234375 -19.667969 L 391.1875 301.167969 L 64.585938 394.769531 Z M -27.367188 73.9375"/></clipPath><clipPath id="c"><path d="M -27.367188 73.9375 L 299.234375 -19.667969 L 391.1875 301.167969 L 64.585938 394.769531 Z M -27.367188 73.9375"/></clipPath><clipPath id="d"><path d="M 53 85 L 153 85 L 153 121 L 53 121 Z M 53 85"/></clipPath><clipPath id="e"><path d="M -27.367188 73.9375 L 299.234375 -19.667969 L 391.1875 301.167969 L 64.585938 394.769531 Z M -27.367188 73.9375"/></clipPath><clipPath id="f"><path d="M -27.367188 73.9375 L 299.234375 -19.667969 L 391.1875 301.167969 L 64.585938 394.769531 Z M -27.367188 73.9375"/></clipPath><clipPath id="g"><path d="M 67 132 L 111 132 L 111 226 L 67 226 Z M 67 132"/></clipPath><clipPath id="h"><path d="M -27.367188 73.9375 L 299.234375 -19.667969 L 391.1875 301.167969 L 64.585938 394.769531 Z M -27.367188 73.9375"/></clipPath><clipPath id="i"><path d="M -27.367188 73.9375 L 299.234375 -19.667969 L 391.1875 301.167969 L 64.585938 394.769531 Z M -27.367188 73.9375"/></clipPath><clipPath id="j"><path d="M 216 2 L 308 2 L 308 84 L 216 84 Z M 216 2"/></clipPath><clipPath id="k"><path d="M -27.367188 73.9375 L 299.234375 -19.667969 L 391.1875 301.167969 L 64.585938 394.769531 Z M -27.367188 73.9375"/></clipPath><clipPath id="l"><path d="M -27.367188 73.9375 L 299.234375 -19.667969 L 391.1875 301.167969 L 64.585938 394.769531 Z M -27.367188 73.9375"/></clipPath><clipPath id="m"><path d="M 172 79 L 261 79 L 261 116 L 172 116 Z M 172 79"/></clipPath><clipPath id="n"><path d="M -27.367188 73.9375 L 299.234375 -19.667969 L 391.1875 301.167969 L 64.585938 394.769531 Z M -27.367188 73.9375"/></clipPath><clipPath id="o"><path d="M -27.367188 73.9375 L 299.234375 -19.667969 L 391.1875 301.167969 L 64.585938 394.769531 Z M -27.367188 73.9375"/></clipPath><clipPath id="p"><path d="M 113 23 L 190 23 L 190 233 L 113 233 Z M 113 23"/></clipPath><clipPath id="q"><path d="M -27.367188 73.9375 L 299.234375 -19.667969 L 391.1875 301.167969 L 64.585938 394.769531 Z M -27.367188 73.9375"/></clipPath><clipPath id="r"><path d="M -27.367188 73.9375 L 299.234375 -19.667969 L 391.1875 301.167969 L 64.585938 394.769531 Z M -27.367188 73.9375"/></clipPath><clipPath id="s"><path d="M 238 205 L 275 205 L 275 336 L 238 336 Z M 238 205"/></clipPath><clipPath id="t"><path d="M -27.367188 73.9375 L 299.234375 -19.667969 L 391.1875 301.167969 L 64.585938 394.769531 Z M -27.367188 73.9375"/></clipPath><clipPath id="u"><path d="M -27.367188 73.9375 L 299.234375 -19.667969 L 391.1875 301.167969 L 64.585938 394.769531 Z M -27.367188 73.9375"/></clipPath><clipPath id="v"><path d="M 124 305 L 144 305 L 144 318 L 124 318 Z M 124 305"/></clipPath><clipPath id="w"><path d="M -27.367188 73.9375 L 299.234375 -19.667969 L 391.1875 301.167969 L 64.585938 394.769531 Z M -27.367188 73.9375"/></clipPath><clipPath id="x"><path d="M -27.367188 73.9375 L 299.234375 -19.667969 L 391.1875 301.167969 L 64.585938 394.769531 Z M -27.367188 73.9375"/></clipPath><clipPath id="y"><path d="M 102 74 L 330 74 L 330 301 L 102 301 Z M 102 74"/></clipPath><clipPath id="z"><path d="M -27.367188 73.9375 L 299.234375 -19.667969 L 391.1875 301.167969 L 64.585938 394.769531 Z M -27.367188 73.9375"/></clipPath><clipPath id="A"><path d="M -27.367188 73.9375 L 299.234375 -19.667969 L 391.1875 301.167969 L 64.585938 394.769531 Z M -27.367188 73.9375"/></clipPath><clipPath id="B"><path d="M 253 194 L 338 194 L 338 279 L 253 279 Z M 253 194"/></clipPath><clipPath id="C"><path d="M -27.367188 73.9375 L 299.234375 -19.667969 L 391.1875 301.167969 L 64.585938 394.769531 Z M -27.367188 73.9375"/></clipPath><clipPath id="D"><path d="M -27.367188 73.9375 L 299.234375 -19.667969 L 391.1875 301.167969 L 64.585938 394.769531 Z M -27.367188 73.9375"/></clipPath><clipPath id="E"><path d="M 9 191 L 111 191 L 111 276 L 9 276 Z M 9 191"/></clipPath><clipPath id="F"><path d="M -27.367188 73.9375 L 299.234375 -19.667969 L 391.1875 301.167969 L 64.585938 394.769531 Z M -27.367188 73.9375"/></clipPath><clipPath id="G"><path d="M -27.367188 73.9375 L 299.234375 -19.667969 L 391.1875 301.167969 L 64.585938 394.769531 Z M -27.367188 73.9375"/></clipPath><clipPath id="H"><path d="M 132 320 L 148 320 L 148 346 L 132 346 Z M 132 320"/></clipPath><clipPath id="I"><path d="M -27.367188 73.9375 L 299.234375 -19.667969 L 391.1875 301.167969 L 64.585938 394.769531 Z M -27.367188 73.9375"/></clipPath><clipPath id="J"><path d="M -27.367188 73.9375 L 299.234375 -19.667969 L 391.1875 301.167969 L 64.585938 394.769531 Z M -27.367188 73.9375"/></clipPath><clipPath id="K"><path d="M 133 243 L 156 243 L 156 266 L 133 266 Z M 133 243"/></clipPath><clipPath id="L"><path d="M 104.695312 268.550781 L 140.808594 229.417969 L 170.574219 256.886719 L 134.457031 296.019531 Z M 104.695312 268.550781"/></clipPath><clipPath id="M"><path d="M 104.695312 268.550781 L 140.808594 229.417969 L 170.574219 256.886719 L 134.457031 296.019531 Z M 104.695312 268.550781"/></clipPath><clipPath id="N"><path d="M 104.695312 268.550781 L 140.808594 229.417969 L 170.574219 256.886719 L 134.457031 296.019531 Z M 104.695312 268.550781"/></clipPath><clipPath id="O"><path d="M 133 248 L 152 248 L 152 266 L 133 266 Z M 133 248"/></clipPath><clipPath id="P"><path d="M 104.695312 268.550781 L 140.808594 229.417969 L 170.574219 256.886719 L 134.457031 296.019531 Z M 104.695312 268.550781"/></clipPath><clipPath id="Q"><path d="M 104.695312 268.550781 L 140.808594 229.417969 L 170.574219 256.886719 L 134.457031 296.019531 Z M 104.695312 268.550781"/></clipPath><clipPath id="R"><path d="M 104.695312 268.550781 L 140.808594 229.417969 L 170.574219 256.886719 L 134.457031 296.019531 Z M 104.695312 268.550781"/></clipPath><clipPath id="S"><path d="M 119 260 L 142 260 L 142 283 L 119 283 Z M 119 260"/></clipPath><clipPath id="T"><path d="M 104.695312 268.550781 L 140.808594 229.417969 L 170.574219 256.886719 L 134.457031 296.019531 Z M 104.695312 268.550781"/></clipPath><clipPath id="U"><path d="M 104.695312 268.550781 L 140.808594 229.417969 L 170.574219 256.886719 L 134.457031 296.019531 Z M 104.695312 268.550781"/></clipPath><clipPath id="V"><path d="M 104.695312 268.550781 L 140.808594 229.417969 L 170.574219 256.886719 L 134.457031 296.019531 Z M 104.695312 268.550781"/></clipPath><clipPath id="W"><path d="M 123 260 L 142 260 L 142 277 L 123 277 Z M 123 260"/></clipPath><clipPath id="X"><path d="M 104.695312 268.550781 L 140.808594 229.417969 L 170.574219 256.886719 L 134.457031 296.019531 Z M 104.695312 268.550781"/></clipPath><clipPath id="Y"><path d="M 104.695312 268.550781 L 140.808594 229.417969 L 170.574219 256.886719 L 134.457031 296.019531 Z M 104.695312 268.550781"/></clipPath><clipPath id="Z"><path d="M 104.695312 268.550781 L 140.808594 229.417969 L 170.574219 256.886719 L 134.457031 296.019531 Z M 104.695312 268.550781"/></clipPath><clipPath id="aa"><path d="M 133 242 L 157 242 L 157 266 L 133 266 Z M 133 242"/></clipPath><clipPath id="ab"><path d="M 104.695312 268.550781 L 140.808594 229.417969 L 170.574219 256.886719 L 134.457031 296.019531 Z M 104.695312 268.550781"/></clipPath><clipPath id="ac"><path d="M 104.695312 268.550781 L 140.808594 229.417969 L 170.574219 256.886719 L 134.457031 296.019531 Z M 104.695312 268.550781"/></clipPath><clipPath id="ad"><path d="M 104.695312 268.550781 L 140.808594 229.417969 L 170.574219 256.886719 L 134.457031 296.019531 Z M 104.695312 268.550781"/></clipPath><clipPath id="ae"><path d="M 146 248 L 149 248 L 149 262 L 146 262 Z M 146 248"/></clipPath><clipPath id="af"><path d="M 104.695312 268.550781 L 140.808594 229.417969 L 170.574219 256.886719 L 134.457031 296.019531 Z M 104.695312 268.550781"/></clipPath><clipPath id="ag"><path d="M 104.695312 268.550781 L 140.808594 229.417969 L 170.574219 256.886719 L 134.457031 296.019531 Z M 104.695312 268.550781"/></clipPath><clipPath id="ah"><path d="M 104.695312 268.550781 L 140.808594 229.417969 L 170.574219 256.886719 L 134.457031 296.019531 Z M 104.695312 268.550781"/></clipPath><clipPath id="ai"><path d="M 118 259 L 142 259 L 142 283 L 118 283 Z M 118 259"/></clipPath><clipPath id="aj"><path d="M 104.695312 268.550781 L 140.808594 229.417969 L 170.574219 256.886719 L 134.457031 296.019531 Z M 104.695312 268.550781"/></clipPath><clipPath id="ak"><path d="M 104.695312 268.550781 L 140.808594 229.417969 L 170.574219 256.886719 L 134.457031 296.019531 Z M 104.695312 268.550781"/></clipPath><clipPath id="al"><path d="M 104.695312 268.550781 L 140.808594 229.417969 L 170.574219 256.886719 L 134.457031 296.019531 Z M 104.695312 268.550781"/></clipPath><clipPath id="am"><path d="M 126 263 L 129 263 L 129 278 L 126 278 Z M 126 263"/></clipPath><clipPath id="an"><path d="M 104.695312 268.550781 L 140.808594 229.417969 L 170.574219 256.886719 L 134.457031 296.019531 Z M 104.695312 268.550781"/></clipPath><clipPath id="ao"><path d="M 104.695312 268.550781 L 140.808594 229.417969 L 170.574219 256.886719 L 134.457031 296.019531 Z M 104.695312 268.550781"/></clipPath><clipPath id="ap"><path d="M 104.695312 268.550781 L 140.808594 229.417969 L 170.574219 256.886719 L 134.457031 296.019531 Z M 104.695312 268.550781"/></clipPath><clipPath id="aq"><path d="M 136 256 L 139 256 L 139 270 L 136 270 Z M 136 256"/></clipPath><clipPath id="ar"><path d="M 104.695312 268.550781 L 140.808594 229.417969 L 170.574219 256.886719 L 134.457031 296.019531 Z M 104.695312 268.550781"/></clipPath><clipPath id="as"><path d="M 104.695312 268.550781 L 140.808594 229.417969 L 170.574219 256.886719 L 134.457031 296.019531 Z M 104.695312 268.550781"/></clipPath><clipPath id="at"><path d="M 104.695312 268.550781 L 140.808594 229.417969 L 170.574219 256.886719 L 134.457031 296.019531 Z M 104.695312 268.550781"/></clipPath><clipPath id="au"><path d="M 136 241 L 138 241 L 138 244 L 136 244 Z M 136 241"/></clipPath><clipPath id="av"><path d="M 104.695312 268.550781 L 140.808594 229.417969 L 170.574219 256.886719 L 134.457031 296.019531 Z M 104.695312 268.550781"/></clipPath><clipPath id="aw"><path d="M 104.695312 268.550781 L 140.808594 229.417969 L 170.574219 256.886719 L 134.457031 296.019531 Z M 104.695312 268.550781"/></clipPath><clipPath id="ax"><path d="M 104.695312 268.550781 L 140.808594 229.417969 L 170.574219 256.886719 L 134.457031 296.019531 Z M 104.695312 268.550781"/></clipPath><clipPath id="ay"><path d="M 136 238 L 138 238 L 138 240 L 136 240 Z M 136 238"/></clipPath><clipPath id="az"><path d="M 104.695312 268.550781 L 140.808594 229.417969 L 170.574219 256.886719 L 134.457031 296.019531 Z M 104.695312 268.550781"/></clipPath><clipPath id="aA"><path d="M 104.695312 268.550781 L 140.808594 229.417969 L 170.574219 256.886719 L 134.457031 296.019531 Z M 104.695312 268.550781"/></clipPath><clipPath id="aB"><path d="M 104.695312 268.550781 L 140.808594 229.417969 L 170.574219 256.886719 L 134.457031 296.019531 Z M 104.695312 268.550781"/></clipPath><clipPath id="aC"><path d="M 136 236 L 138 236 L 138 238 L 136 238 Z M 136 236"/></clipPath><clipPath id="aD"><path d="M 104.695312 268.550781 L 140.808594 229.417969 L 170.574219 256.886719 L 134.457031 296.019531 Z M 104.695312 268.550781"/></clipPath><clipPath id="aE"><path d="M 104.695312 268.550781 L 140.808594 229.417969 L 170.574219 256.886719 L 134.457031 296.019531 Z M 104.695312 268.550781"/></clipPath><clipPath id="aF"><path d="M 104.695312 268.550781 L 140.808594 229.417969 L 170.574219 256.886719 L 134.457031 296.019531 Z M 104.695312 268.550781"/></clipPath><clipPath id="aG"><path d="M 135 234 L 138 234 L 138 236 L 135 236 Z M 135 234"/></clipPath><clipPath id="aH"><path d="M 104.695312 268.550781 L 140.808594 229.417969 L 170.574219 256.886719 L 134.457031 296.019531 Z M 104.695312 268.550781"/></clipPath><clipPath id="aI"><path d="M 104.695312 268.550781 L 140.808594 229.417969 L 170.574219 256.886719 L 134.457031 296.019531 Z M 104.695312 268.550781"/></clipPath><clipPath id="aJ"><path d="M 104.695312 268.550781 L 140.808594 229.417969 L 170.574219 256.886719 L 134.457031 296.019531 Z M 104.695312 268.550781"/></clipPath><clipPath id="aK"><path d="M 137 281 L 140 281 L 140 285 L 137 285 Z M 137 281"/></clipPath><clipPath id="aL"><path d="M 104.695312 268.550781 L 140.808594 229.417969 L 170.574219 256.886719 L 134.457031 296.019531 Z M 104.695312 268.550781"/></clipPath><clipPath id="aM"><path d="M 104.695312 268.550781 L 140.808594 229.417969 L 170.574219 256.886719 L 134.457031 296.019531 Z M 104.695312 268.550781"/></clipPath><clipPath id="aN"><path d="M 104.695312 268.550781 L 140.808594 229.417969 L 170.574219 256.886719 L 134.457031 296.019531 Z M 104.695312 268.550781"/></clipPath><clipPath id="aO"><path d="M 137 285 L 140 285 L 140 287 L 137 287 Z M 137 285"/></clipPath><clipPath id="aP"><path d="M 104.695312 268.550781 L 140.808594 229.417969 L 170.574219 256.886719 L 134.457031 296.019531 Z M 104.695312 268.550781"/></clipPath><clipPath id="aQ"><path d="M 104.695312 268.550781 L 140.808594 229.417969 L 170.574219 256.886719 L 134.457031 296.019531 Z M 104.695312 268.550781"/></clipPath><clipPath id="aR"><path d="M 104.695312 268.550781 L 140.808594 229.417969 L 170.574219 256.886719 L 134.457031 296.019531 Z M 104.695312 268.550781"/></clipPath><clipPath id="aS"><path d="M 138 287 L 140 287 L 140 289 L 138 289 Z M 138 287"/></clipPath><clipPath id="aT"><path d="M 104.695312 268.550781 L 140.808594 229.417969 L 170.574219 256.886719 L 134.457031 296.019531 Z M 104.695312 268.550781"/></clipPath><clipPath id="aU"><path d="M 104.695312 268.550781 L 140.808594 229.417969 L 170.574219 256.886719 L 134.457031 296.019531 Z M 104.695312 268.550781"/></clipPath><clipPath id="aV"><path d="M 104.695312 268.550781 L 140.808594 229.417969 L 170.574219 256.886719 L 134.457031 296.019531 Z M 104.695312 268.550781"/></clipPath><clipPath id="aW"><path d="M 138 289 L 140 289 L 140 292 L 138 292 Z M 138 289"/></clipPath><clipPath id="aX"><path d="M 104.695312 268.550781 L 140.808594 229.417969 L 170.574219 256.886719 L 134.457031 296.019531 Z M 104.695312 268.550781"/></clipPath><clipPath id="aY"><path d="M 104.695312 268.550781 L 140.808594 229.417969 L 170.574219 256.886719 L 134.457031 296.019531 Z M 104.695312 268.550781"/></clipPath><clipPath id="aZ"><path d="M 104.695312 268.550781 L 140.808594 229.417969 L 170.574219 256.886719 L 134.457031 296.019531 Z M 104.695312 268.550781"/></clipPath></defs><g clip-path="url(#a)"><g clip-path="url(#b)"><g clip-path="url(#c)"><path fill="#FF8E3C" d="M 95.101562 276.015625 C 95.078125 276.179688 95.023438 276.398438 94.972656 276.636719 C 94.996094 276.476562 95.089844 276.378906 95.121094 276.203125 C 95.144531 276.160156 95.121094 276.082031 95.101562 276.015625"/></g></g></g><g clip-path="url(#d)"><g clip-path="url(#e)"><g clip-path="url(#f)"><path fill="#FF8E3C" d="M 119.789062 98.589844 C 113.980469 97.96875 108.355469 98.960938 102.660156 100.105469 C 98.035156 101.011719 95.960938 93.976562 100.628906 93.066406 C 105.550781 92.074219 110.988281 90.609375 116.09375 90.933594 C 121.335938 91.226562 126.480469 92.394531 131.710938 91.230469 C 136.304688 90.222656 138.378906 97.25 133.738281 98.269531 C 129.070312 99.308594 124.511719 99.105469 119.789062 98.589844 Z M 140.589844 117.226562 C 141.140625 115.496094 141.71875 113.808594 142.28125 112.121094 C 145.273438 103.277344 149.347656 94.476562 152.4375 85.5625 C 115.917969 84.539062 83.085938 89.367188 53.445312 110.339844 C 78.832031 123.878906 112.054688 121.082031 139.539062 117.136719 C 139.964844 117.085938 140.257812 117.15625 140.589844 117.226562"/></g></g></g><g clip-path="url(#g)"><g clip-path="url(#h)"><g clip-path="url(#i)"><path fill="#FF8E3C" d="M 103.542969 225.351562 C 104.191406 225.164062 104.90625 224.960938 105.523438 224.78125 C 105.964844 224.65625 106.34375 224.65625 106.707031 224.671875 C 107.746094 219.871094 109.117188 215.132812 110.660156 210.464844 C 109.519531 209.933594 108.664062 208.976562 108.554688 207.398438 C 107.570312 190.285156 99.925781 171.175781 91.761719 156.320312 C 86.554688 146.835938 78.769531 140.445312 72.050781 132.761719 C 61.214844 159.015625 74.273438 188.789062 83.828125 214.699219 C 83.90625 214.679688 83.929688 214.636719 84.007812 214.613281 C 85.085938 214.304688 86.269531 214.035156 87.328125 213.53125 C 88.410156 213.066406 89.605469 212.996094 90.605469 213.367188 C 91.007812 213.40625 91.390625 213.496094 91.804688 213.722656 C 93.660156 214.714844 95.605469 215.480469 97.449219 216.476562 C 98.742188 217.152344 100.226562 218.097656 101.667969 218.351562 C 102.867188 218.542969 103.601562 219.203125 104.015625 219.976562 C 104.1875 220.164062 104.402344 220.328125 104.53125 220.53125 C 105.621094 222.253906 104.953125 224.160156 103.542969 225.351562"/></g></g></g><g clip-path="url(#j)"><g clip-path="url(#k)"><g clip-path="url(#l)"><path fill="#FF8E3C" d="M 266.394531 83.410156 C 277.691406 73.492188 290.558594 66.328125 307.0625 67.8125 C 307.238281 67.847656 307.34375 67.851562 307.476562 67.894531 C 303.523438 61.492188 292.632812 56.027344 287.351562 52.230469 C 280.527344 47.328125 273.078125 41.035156 267.226562 34.984375 C 253.265625 20.515625 238.328125 12.152344 221.070312 2.667969 C 219.535156 3.429688 217.957031 4.359375 216.570312 5.503906 C 218.445312 8.601562 218.550781 12.203125 218.964844 16.105469 C 219.628906 21.785156 220.601562 27.296875 222.414062 32.753906 C 222.738281 33.875 223.125 34.929688 223.585938 36.011719 C 223.597656 36.046875 223.609375 36.089844 223.671875 36.144531 C 224.726562 34.792969 225.851562 33.519531 226.914062 32.203125 C 230.175781 28.207031 234.71875 26.738281 239.519531 25.195312 C 241.847656 24.480469 243.5 25.996094 243.925781 27.863281 C 249.960938 31.679688 254.941406 37.828125 260.066406 42.714844 C 263.257812 45.742188 271.507812 52.507812 267.886719 57.859375 C 264.105469 63.453125 258.746094 65.3125 252.191406 64.59375 C 249.042969 64.246094 246.648438 63.410156 244.710938 61.976562 C 246.644531 66.933594 251.222656 72.886719 252.890625 74.597656 C 256.753906 78.601562 261.589844 80.84375 266.394531 83.410156"/></g></g></g><g clip-path="url(#m)"><g clip-path="url(#n)"><g clip-path="url(#o)"><path fill="#FF8E3C" d="M 239.320312 110.46875 C 239.734375 110.421875 240.03125 110.503906 240.371094 110.5625 C 240.660156 110.242188 240.96875 109.949219 241.246094 109.679688 C 247.550781 102.96875 253.894531 95.503906 260.691406 88.722656 C 257.257812 87.015625 253.734375 85.347656 250.882812 82.796875 C 249.523438 81.625 248.425781 80.378906 247.34375 79.09375 C 246.84375 79.511719 246.226562 79.808594 245.425781 79.882812 C 224.007812 81.566406 202.316406 79.472656 181.109375 83.917969 C 181.042969 83.9375 181 83.953125 180.957031 83.929688 C 180.511719 86.863281 179.90625 90.445312 179.410156 92.003906 C 178.210938 95.667969 177.148438 93.082031 177.769531 98.070312 C 177.894531 98.925781 177.359375 100.054688 176.796875 100.660156 C 176.292969 101.113281 175.960938 101.445312 175.726562 101.703125 C 176.90625 103.367188 176.941406 104.949219 176.457031 107.210938 C 175.722656 110.503906 174.242188 106.046875 175.535156 110.09375 C 176.035156 111.710938 175.242188 113.308594 173.910156 114.238281 C 173.125 114.773438 172.644531 115.265625 172.320312 115.753906 C 183.210938 114.488281 194.726562 111 205.464844 111.765625 C 216.824219 112.59375 228.046875 111.773438 239.320312 110.46875"/></g></g></g><g clip-path="url(#p)"><g clip-path="url(#q)"><g clip-path="url(#r)"><path fill="#FF8E3C" d="M 172.539062 88.625 C 172.5625 88.585938 172.339844 85.242188 172.445312 84.820312 C 173.023438 82.464844 173.183594 75.964844 175.707031 74.417969 C 179.453125 72.117188 176.820312 74.480469 176.273438 69.753906 C 176.105469 68.503906 177.019531 67.195312 178.011719 66.589844 L 178.054688 66.578125 C 177.90625 66.347656 177.792969 65.949219 177.84375 65.304688 C 178.003906 63.578125 177.859375 61.15625 179.734375 60.226562 C 179.871094 60.152344 180.511719 54.371094 180.496094 55.148438 C 180.496094 53.242188 180.867188 48.710938 181.835938 46.90625 C 182.558594 45.640625 183.578125 44.289062 184.574219 42.992188 C 184.398438 43.042969 184.527344 42.410156 184.574219 40.953125 C 184.582031 40.441406 184.710938 39.9375 184.925781 39.484375 C 184.871094 39.417969 184.804688 39.4375 184.75 39.414062 C 182.011719 37.628906 182.890625 34.042969 185.015625 32.851562 C 183.84375 30.601562 184.785156 27.355469 187.964844 27.527344 C 188.328125 27.542969 188.644531 27.570312 188.964844 27.597656 C 189.003906 27.039062 188.960938 26.503906 189.097656 26.035156 C 189.332031 25.183594 189.574219 24.410156 189.773438 23.617188 C 170.703125 33.703125 168.089844 58.894531 163.148438 76.480469 C 157.898438 95.394531 148.203125 113.414062 142.921875 132.347656 C 137.886719 150.507812 133.203125 169.496094 126.457031 187.050781 C 121.539062 199.925781 116.183594 214.15625 113.53125 227.703125 C 113.472656 228.042969 113.292969 228.246094 113.199219 228.464844 C 114.105469 229.539062 114.882812 230.636719 115.484375 232.035156 C 115.554688 232.277344 115.660156 232.523438 115.722656 232.742188 C 124.902344 220.230469 135.554688 209.019531 147.027344 198.230469 C 144.046875 197.144531 144.21875 193.261719 146.367188 191.777344 C 145.730469 189.96875 146.246094 187.703125 148.644531 187.050781 C 148.964844 186.960938 149.292969 186.863281 149.613281 186.773438 C 149.183594 186.230469 148.679688 185.671875 148.328125 185.152344 C 147.824219 184.355469 147.734375 183.632812 147.804688 182.910156 C 146.863281 181.035156 147.277344 178.535156 149.902344 177.890625 C 150.273438 177.820312 150.582031 177.769531 150.832031 177.730469 C 150.789062 177.707031 150.746094 177.683594 150.726562 177.605469 C 149.832031 176.148438 150.078125 174.433594 151.164062 173.148438 C 155.222656 168.53125 157.691406 160.859375 154.21875 155.601562 C 153.378906 154.285156 153.519531 152.207031 154.6875 151.121094 C 155.875 150.078125 158.289062 147.066406 159.148438 148.035156 C 158.117188 146.886719 157.542969 145.050781 158.5 143.613281 C 159.9375 141.390625 160.125 141.265625 158.570312 139.246094 C 157.550781 137.894531 158.042969 135.953125 159.046875 134.796875 C 161.347656 132.066406 161.085938 127.367188 164.226562 125.40625 C 161.117188 127.359375 160.328125 120.820312 162.546875 118.507812 C 164.59375 116.382812 163.847656 111.085938 167.355469 109.402344 C 167.347656 109.25 167.339844 109.097656 167.34375 108.820312 C 167.355469 108.199219 167.5 107.609375 167.792969 107.015625 C 168.902344 104.613281 168.960938 105.652344 167.863281 103.859375 C 165.847656 100.570312 169.613281 96.121094 169.578125 92.878906 C 169.550781 91.171875 171.046875 89.292969 172.539062 88.625"/></g></g></g><g clip-path="url(#s)"><g clip-path="url(#t)"><g clip-path="url(#u)"><path fill="#FF8E3C" d="M 257.738281 303.417969 C 254.746094 303.953125 250.585938 303.980469 248.273438 306.429688 C 244.429688 310.507812 246.003906 317.128906 248.796875 321.425781 C 250.308594 323.753906 252.582031 325.945312 254.980469 327.378906 C 255.917969 327.945312 256.8125 328.332031 257.621094 328.609375 C 257.191406 328.601562 256.71875 328.621094 256.199219 328.636719 C 251.964844 328.816406 252.019531 335.40625 256.269531 335.238281 C 262.484375 334.980469 271.3125 335.414062 269.316406 326.617188 C 269.058594 325.476562 268.035156 324.636719 266.957031 324.328125 C 259.433594 322.175781 247.070312 314.359375 259.554688 309.757812 C 263.332031 308.363281 268.1875 309.460938 271.660156 306.953125 C 273.816406 305.382812 275.097656 303.371094 274.890625 300.609375 C 274.570312 296.414062 270.640625 293.753906 267.035156 292.644531 C 260.089844 290.515625 258.78125 297.046875 258.375 286.984375 C 257.988281 277.375 259.691406 283.222656 265.265625 279.542969 C 275.597656 272.746094 264.363281 267.585938 260.347656 262.746094 C 253.207031 254.171875 261.746094 254.082031 260.664062 246.105469 C 259.757812 239.457031 248.277344 234.507812 250.484375 227.507812 C 250.609375 227.113281 250.644531 226.769531 250.640625 226.425781 C 251.671875 225.164062 253.335938 224.738281 255.265625 224.289062 L 255.980469 224.121094 C 256.652344 223.976562 257.070312 223.429688 257.097656 222.777344 C 257.269531 220.0625 256.453125 217.246094 255.792969 214.984375 C 255.738281 214.796875 255.734375 214.617188 255.761719 214.300781 C 255.8125 213.894531 255.671875 213.480469 255.394531 213.179688 C 253.316406 210.871094 251.214844 208.613281 249.0625 206.339844 C 248.789062 206.046875 248.40625 205.882812 248.011719 205.878906 C 247.609375 205.875 247.222656 206.03125 246.949219 206.3125 L 239.234375 214.144531 C 238.949219 214.429688 238.796875 214.816406 238.820312 215.226562 C 238.828125 215.628906 239.019531 216.003906 239.324219 216.273438 C 239.558594 216.46875 239.71875 216.707031 239.820312 217.214844 C 240.1875 218.96875 240.398438 221.242188 240.617188 223.65625 C 241.238281 230.523438 242.027344 239.085938 247.328125 242.832031 C 247.6875 243.097656 248.160156 243.164062 248.566406 243.046875 C 248.765625 242.988281 248.941406 242.890625 249.09375 242.765625 C 249.605469 242.34375 249.769531 241.628906 249.5 241.027344 C 249.394531 240.785156 249.339844 240.503906 249.242188 240.246094 C 249.570312 240.722656 249.902344 241.222656 250.222656 241.761719 C 254.769531 249.566406 245.664062 253.105469 248.535156 260.714844 C 249.75 263.914062 252.203125 264.710938 254.261719 267.074219 C 255.695312 268.699219 260.28125 271.078125 258.089844 274.644531 C 257.601562 275.441406 254.796875 274.542969 254.019531 275.191406 C 249.359375 279.003906 244.425781 280.703125 245.054688 287.929688 C 245.671875 295.148438 250.777344 297.542969 256.792969 299.164062 C 259.96875 300.027344 261.546875 298.183594 264.285156 300.542969 C 267.796875 303.570312 260.527344 302.929688 257.738281 303.417969"/></g></g></g><g clip-path="url(#v)"><g clip-path="url(#w)"><g clip-path="url(#x)"><path fill="#FF8E3C" d="M 142.023438 306.136719 C 141.773438 305.433594 141.039062 305.027344 140.308594 305.1875 C 135.507812 306.300781 130.757812 306.519531 126.230469 305.839844 C 125.835938 305.789062 125.433594 305.890625 125.109375 306.125 C 124.796875 306.371094 124.589844 306.726562 124.550781 307.132812 C 124.363281 308.804688 124.265625 313.570312 126.074219 315.351562 C 126.742188 315.980469 127.324219 316.46875 127.871094 316.835938 C 128.269531 317.113281 128.777344 317.171875 129.242188 316.980469 C 129.695312 316.800781 130.03125 316.394531 130.128906 315.914062 C 130.316406 314.980469 130.503906 313.972656 130.472656 312.957031 C 130.492188 310.871094 132.539062 310.820312 132.777344 310.8125 C 133.132812 310.816406 134.914062 310.921875 134.910156 312.816406 C 134.886719 313.765625 134.808594 314.621094 134.65625 315.414062 C 134.5625 315.917969 134.742188 316.425781 135.125 316.757812 C 135.496094 317.105469 136.015625 317.214844 136.5 317.078125 C 136.511719 317.074219 136.511719 317.074219 136.511719 317.074219 C 140.003906 316.039062 142.1875 314.4375 143.007812 312.320312 C 143.703125 310.5 143.367188 308.417969 142.023438 306.136719"/></g></g></g><g clip-path="url(#y)"><g clip-path="url(#z)"><g clip-path="url(#A)"><path fill="#FF8E3C" d="M 295.25 76.042969 C 281.457031 79.246094 273.640625 86 264.378906 96.070312 C 247.894531 114.011719 231.363281 132.871094 211.933594 147.679688 C 200.71875 156.242188 192.800781 167.679688 182.214844 176.953125 C 171.953125 185.941406 161.371094 194.558594 151.410156 203.808594 C 132.257812 221.703125 116.480469 240.742188 105.296875 264.582031 C 95.660156 285.273438 116.589844 305.28125 137.886719 299.390625 C 151.976562 295.484375 163.429688 286.414062 173.613281 276.164062 C 192.910156 256.734375 209.917969 235.167969 229.226562 215.621094 C 248.472656 196.136719 268.378906 177.167969 286.523438 156.582031 C 301.636719 139.429688 338.402344 116.292969 327.761719 89.050781 C 322.550781 75.78125 307.890625 73.125 295.25 76.042969"/></g></g></g><g clip-path="url(#B)"><g clip-path="url(#C)"><g clip-path="url(#D)"><path fill="#FF8E3C" d="M 274.90625 208.957031 C 270.933594 204.15625 266.398438 197.644531 260.90625 194.226562 C 258.300781 196.855469 255.695312 199.484375 253.136719 202.097656 C 267.832031 217.640625 281.339844 233.535156 297.367188 247.980469 C 309.75 259.148438 323.992188 268.210938 337.234375 278.429688 C 332.238281 259.65625 313.738281 243.441406 299.851562 231.933594 C 291.300781 224.820312 282.019531 217.574219 274.90625 208.957031"/></g></g></g><g clip-path="url(#E)"><g clip-path="url(#F)"><g clip-path="url(#G)"><path fill="#FF8E3C" d="M 48.34375 234.574219 C 44.046875 231.042969 38.707031 229.074219 34.351562 225.640625 C 29.734375 222 25.972656 218.054688 22.203125 213.539062 C 19.210938 209.953125 24.234375 204.585938 27.238281 208.214844 C 31.308594 213.105469 35.765625 218.769531 41.53125 221.808594 C 45.632812 223.945312 49.804688 226.332031 53.390625 229.28125 C 57.0625 232.253906 51.953125 237.566406 48.34375 234.574219 Z M 95.105469 275.777344 C 94.898438 271.265625 96.160156 266.949219 98.882812 261.074219 C 102.207031 253.894531 106.027344 247.238281 110.140625 240.890625 C 109.832031 240.347656 109.578125 239.765625 109.632812 239.121094 C 109.800781 237.667969 109.289062 236.171875 108.75 234.835938 C 108.253906 233.691406 107.480469 232.902344 106.660156 232.078125 C 103.460938 233.042969 99.910156 233.90625 97.214844 231.367188 C 95.234375 229.519531 95.238281 226.660156 96.175781 224.082031 C 95.621094 223.808594 95.066406 223.492188 94.546875 223.214844 C 93.355469 222.589844 92.136719 222.035156 90.945312 221.449219 C 93.371094 231.574219 75.222656 236.859375 66.429688 232.558594 C 56.667969 227.757812 48.835938 220 43.144531 210.738281 C 38.890625 203.871094 34.453125 198.273438 27.011719 194.714844 C 24.789062 193.636719 22.519531 192.835938 20.585938 191.449219 C 18.089844 192.796875 15.238281 195.101562 13.488281 196.9375 C 12.765625 197.65625 10.683594 199.394531 9.496094 200.832031 C 12.183594 211.359375 27.867188 225.832031 36.3125 231.484375 C 44.84375 237.195312 53.039062 243.46875 61.378906 249.472656 C 67.363281 253.808594 72.585938 258.859375 78.257812 263.484375 C 82.371094 266.867188 86.707031 269.992188 90.8125 273.339844 C 93.371094 275.417969 94.578125 275.808594 95.105469 275.777344"/></g></g></g><g clip-path="url(#H)"><g clip-path="url(#I)"><g clip-path="url(#J)"><path fill="#FF8E3C" d="M 140.917969 320.941406 C 140.566406 320.746094 140.125 320.707031 139.789062 320.828125 C 138.015625 321.371094 136.148438 321.75 134.335938 322.117188 C 133.539062 322.203125 132.71875 322.78125 132.710938 323.59375 C 131.957031 328.3125 132.3125 333.828125 133.757812 338.914062 C 135.375 342.691406 138.03125 344.941406 141.644531 345.621094 C 141.871094 345.664062 142.097656 345.660156 142.316406 345.59375 C 142.414062 345.566406 142.511719 345.527344 142.605469 345.476562 L 146.371094 343.457031 C 146.835938 343.203125 147.128906 342.726562 147.144531 342.199219 C 147.15625 341.578125 147.210938 340.894531 147.28125 340.195312 C 147.414062 338.703125 147.558594 337.175781 147.332031 335.796875 C 146.570312 330.445312 144.058594 325.878906 141.683594 322.035156 C 141.679688 322.023438 141.632812 321.847656 141.625 321.824219 C 141.515625 321.449219 141.269531 321.128906 140.917969 320.941406"/></g></g></g><g clip-path="url(#K)"><g clip-path="url(#L)"><g clip-path="url(#M)"><g clip-path="url(#N)"><path fill="#FF5B00" d="M 153.902344 243.6875 L 140.441406 244.230469 C 140.074219 244.246094 139.730469 244.40625 139.484375 244.675781 L 134.199219 250.402344 C 133.820312 250.8125 133.726562 251.410156 133.960938 251.914062 C 134.191406 252.421875 134.707031 252.734375 135.265625 252.714844 L 147.347656 252.222656 L 147.828125 264.308594 C 147.851562 264.863281 148.207031 265.351562 148.730469 265.542969 C 149.25 265.738281 149.839844 265.59375 150.214844 265.1875 L 155.503906 259.457031 C 155.75 259.191406 155.882812 258.832031 155.867188 258.46875 L 155.332031 245.007812 C 155.316406 244.640625 155.160156 244.296875 154.890625 244.050781 C 154.621094 243.804688 154.265625 243.671875 153.902344 243.6875 Z M 153.902344 243.6875"/></g></g></g></g><g clip-path="url(#O)"><g clip-path="url(#P)"><g clip-path="url(#Q)"><g clip-path="url(#R)"><path fill="#FF9700" d="M 150.476562 250.265625 C 150.464844 249.902344 150.304688 249.558594 150.035156 249.3125 C 149.769531 249.0625 149.414062 248.933594 149.046875 248.945312 L 135.585938 249.492188 C 135.222656 249.507812 134.878906 249.667969 134.628906 249.933594 L 134.199219 250.402344 C 133.820312 250.8125 133.726562 251.410156 133.960938 251.914062 C 134.191406 252.421875 134.707031 252.734375 135.265625 252.714844 L 147.347656 252.222656 L 147.828125 264.308594 C 147.851562 264.863281 148.207031 265.351562 148.730469 265.542969 C 149.25 265.738281 149.839844 265.59375 150.214844 265.1875 L 150.648438 264.71875 C 150.894531 264.449219 151.027344 264.09375 151.011719 263.726562 Z M 150.476562 250.265625"/></g></g></g></g><g clip-path="url(#S)"><g clip-path="url(#T)"><g clip-path="url(#U)"><g clip-path="url(#V)"><path fill="#11AAA6" d="M 126.25 260.269531 C 125.726562 260.078125 125.140625 260.21875 124.761719 260.628906 L 119.476562 266.355469 C 119.226562 266.625 119.097656 266.980469 119.109375 267.34375 L 119.644531 280.808594 C 119.660156 281.171875 119.820312 281.515625 120.085938 281.761719 C 120.355469 282.011719 120.710938 282.140625 121.074219 282.125 L 134.535156 281.582031 C 134.902344 281.566406 135.246094 281.40625 135.496094 281.140625 L 140.78125 275.410156 C 141.160156 275 141.253906 274.40625 141.019531 273.898438 C 140.785156 273.394531 140.269531 273.078125 139.714844 273.101562 L 127.628906 273.589844 L 127.148438 261.507812 C 127.128906 260.949219 126.773438 260.460938 126.25 260.269531 Z M 126.25 260.269531"/></g></g></g></g><g clip-path="url(#W)"><g clip-path="url(#X)"><g clip-path="url(#Y)"><g clip-path="url(#Z)"><path fill="#20D397" d="M 141.019531 273.898438 C 140.785156 273.394531 140.269531 273.078125 139.714844 273.101562 L 127.628906 273.589844 L 127.148438 261.507812 C 127.128906 260.949219 126.773438 260.460938 126.25 260.269531 C 125.726562 260.078125 125.140625 260.21875 124.761719 260.628906 L 124.328125 261.09375 C 124.082031 261.363281 123.953125 261.71875 123.964844 262.085938 L 124.5 275.546875 C 124.515625 275.910156 124.671875 276.253906 124.941406 276.503906 C 125.210938 276.75 125.566406 276.882812 125.929688 276.867188 L 139.390625 276.320312 C 139.757812 276.304688 140.101562 276.148438 140.347656 275.878906 L 140.78125 275.410156 C 141.160156 275 141.253906 274.40625 141.019531 273.898438 Z M 141.019531 273.898438"/></g></g></g></g><g clip-path="url(#aa)"><g clip-path="url(#ab)"><g clip-path="url(#ac)"><g clip-path="url(#ad)"><path stroke-linecap="round" transform="matrix(.2774 -.30058 .30033 .27716 98.667 264.299)" fill="none" stroke-linejoin="round" d="M 129.875998 65.115956 L 106.573695 41.818142 C 105.950279 41.184339 105.092551 40.831988 104.193756 40.829724 L 85.141454 40.829152 C 83.776257 40.828454 82.546999 41.651676 82.03025 42.909353 C 81.506482 44.173512 81.799976 45.619294 82.754802 46.584316 L 103.678944 67.50037 L 82.76079 88.420792 C 81.796567 89.376409 81.508678 90.825906 82.025677 92.091266 C 82.549695 93.350143 83.780924 94.163923 85.139103 94.171103 L 104.198422 94.165192 C 105.090199 94.173939 105.94963 93.80936 106.57643 93.178403 L 129.880848 69.884872 C 130.514666 69.247433 130.866725 68.388993 130.868447 67.502959 C 130.863691 66.609901 130.512909 65.7503 129.875998 65.115956 Z M 129.875998 65.115956" stroke="#33363A" stroke-width="3" stroke-miterlimit="10"/></g></g></g></g><g clip-path="url(#ae)"><g clip-path="url(#af)"><g clip-path="url(#ag)"><g clip-path="url(#ah)"><path stroke-linecap="round" transform="matrix(.2774 -.30058 .30033 .27716 98.667 264.299)" fill="none" stroke-linejoin="round" d="M 108.671207 62.499174 L 87.753053 83.419596" stroke="#33363A" stroke-width="3" stroke-miterlimit="10"/></g></g></g></g><g clip-path="url(#ai)"><g clip-path="url(#aj)"><g clip-path="url(#ak)"><g clip-path="url(#al)"><path stroke-linecap="round" transform="matrix(.2774 -.30058 .30033 .27716 98.667 264.299)" fill="none" stroke-linejoin="round" d="M 52.975139 42.913032 C 52.451121 41.654155 51.22691 40.833892 49.861713 40.833195 L 30.809412 40.832623 C 29.910617 40.830358 29.058205 41.188456 28.424927 41.812389 L 5.119968 65.119425 C 4.493168 65.750382 4.141109 66.608822 4.139387 67.494856 C 4.137125 68.394397 4.494925 69.247516 5.12536 69.874836 L 28.420644 93.179132 C 29.057555 93.813476 29.915284 94.165827 30.80706 94.174574 L 49.86638 94.168664 C 51.231577 94.169361 52.453817 93.352622 52.977584 92.088463 C 53.494334 90.830786 53.207858 89.378522 52.246014 88.419981 L 31.32889 67.497445 L 52.240026 46.583506 C 53.211267 45.621406 53.499156 44.171909 52.975139 42.913032 Z M 52.975139 42.913032" stroke="#33363A" stroke-width="3" stroke-miterlimit="10"/></g></g></g></g><g clip-path="url(#am)"><g clip-path="url(#an)"><g clip-path="url(#ao)"><g clip-path="url(#ap)"><path stroke-linecap="round" transform="matrix(.2774 -.30058 .30033 .27716 98.667 264.299)" fill="none" stroke-linejoin="round" d="M 26.323132 72.498099 L 47.247763 51.584701" stroke="#33363A" stroke-width="3" stroke-miterlimit="10"/></g></g></g></g><g clip-path="url(#aq)"><g clip-path="url(#ar)"><g clip-path="url(#as)"><g clip-path="url(#at)"><path stroke-linecap="round" transform="matrix(.2774 -.30058 .30033 .27716 98.667 264.299)" fill="none" stroke-linejoin="round" d="M 57.038092 77.958848 L 77.956246 57.038426" stroke="#33363A" stroke-width="3" stroke-miterlimit="10"/></g></g></g></g><g clip-path="url(#au)"><g clip-path="url(#av)"><g clip-path="url(#aw)"><g clip-path="url(#ax)"><path stroke-linecap="round" transform="matrix(.2774 -.30058 .30033 .27716 98.667 264.299)" fill="none" stroke-linejoin="round" d="M 101.401573 33.601742 L 103.788378 31.215127" stroke="#33363A" stroke-width="3" stroke-miterlimit="10"/></g></g></g></g><g clip-path="url(#ay)"><g clip-path="url(#az)"><g clip-path="url(#aA)"><g clip-path="url(#aB)"><path stroke-linecap="round" transform="matrix(.2774 -.30058 .30033 .27716 98.667 264.299)" fill="none" stroke-linejoin="round" d="M 108.188933 26.812476 L 108.435658 26.55858" stroke="#33363A" stroke-width="3" stroke-miterlimit="10"/></g></g></g></g><g clip-path="url(#aC)"><g clip-path="url(#aD)"><g clip-path="url(#aE)"><g clip-path="url(#aF)"><path stroke-linecap="round" transform="matrix(.2774 -.30058 .30033 .27716 98.667 264.299)" fill="none" stroke-linejoin="round" d="M 111.674393 23.320066 L 111.927595 23.073195" stroke="#33363A" stroke-width="3" stroke-miterlimit="10"/></g></g></g></g><g clip-path="url(#aG)"><g clip-path="url(#aH)"><g clip-path="url(#aI)"><g clip-path="url(#aJ)"><path stroke-linecap="round" transform="matrix(.2774 -.30058 .30033 .27716 98.667 264.299)" fill="none" stroke-linejoin="round" d="M 115.16633 19.834681 L 115.419532 19.587809" stroke="#33363A" stroke-width="3" stroke-miterlimit="10"/></g></g></g></g><g clip-path="url(#aK)"><g clip-path="url(#aL)"><g clip-path="url(#aM)"><g clip-path="url(#aN)"><path stroke-linecap="round" transform="matrix(.2774 -.30058 .30033 .27716 98.667 264.299)" fill="none" stroke-linejoin="round" d="M 33.599243 101.402556 L 31.212437 103.789171" stroke="#33363A" stroke-width="3" stroke-miterlimit="10"/></g></g></g></g><g clip-path="url(#aO)"><g clip-path="url(#aP)"><g clip-path="url(#aQ)"><g clip-path="url(#aR)"><path stroke-linecap="round" transform="matrix(.2774 -.30058 .30033 .27716 98.667 264.299)" fill="none" stroke-linejoin="round" d="M 26.811883 108.191821 L 26.558681 108.438693" stroke="#33363A" stroke-width="3" stroke-miterlimit="10"/></g></g></g></g><g clip-path="url(#aS)"><g clip-path="url(#aT)"><g clip-path="url(#aU)"><g clip-path="url(#aV)"><path stroke-linecap="round" transform="matrix(.2774 -.30058 .30033 .27716 98.667 264.299)" fill="none" stroke-linejoin="round" d="M 23.319946 111.677207 L 23.073221 111.931103" stroke="#33363A" stroke-width="3" stroke-miterlimit="10"/></g></g></g></g><g clip-path="url(#aW)"><g clip-path="url(#aX)"><g clip-path="url(#aY)"><g clip-path="url(#aZ)"><path stroke-linecap="round" transform="matrix(.2774 -.30058 .30033 .27716 98.667 264.299)" fill="none" stroke-linejoin="round" d="M 19.834486 115.169617 L 19.581284 115.416489" stroke="#33363A" stroke-width="3" stroke-miterlimit="10"/></g></g></g></g></svg>